<?xml version="1.0" encoding="UTF-8"?> <svg xmlns="http://www.w3.org/2000/svg" width="800" height="800" viewBox="0 0 800 800" fill="none"><circle opacity="0.98" cx="400" cy="400" r="300" fill="#131A35"></circle><path d="M581.801 341.546V504.995L399.998 609.939L218.096 504.995V295.005L399.998 189.96L539.722 270.671L560.812 258.503L399.998 165.625L197.006 282.838V517.162L399.998 634.375L602.993 517.162V329.378L581.801 341.546Z" fill="url(#paint0_linear_346_10239)"></path><path d="M349.098 505.097H318.68V403.093H420.075C429.669 402.987 438.834 399.107 445.589 392.295C452.345 385.483 456.146 376.285 456.172 366.691C456.226 361.948 455.311 357.242 453.48 352.866C451.648 348.489 448.942 344.534 445.525 341.242C442.218 337.844 438.261 335.149 433.887 333.32C429.514 331.49 424.815 330.563 420.075 330.594H318.68V299.568H420.176C437.945 299.674 454.957 306.78 467.523 319.345C480.087 331.911 487.193 348.923 487.299 366.691C487.408 380.294 483.261 393.588 475.437 404.714C468.236 415.36 458.089 423.676 446.235 428.643C434.497 432.366 422.249 434.214 409.935 434.12H349.098V505.097Z" fill="url(#paint1_linear_346_10239)"></path><path d="M486.592 502.561H451.102L423.727 454.804C434.557 454.141 445.241 451.957 455.463 448.315L486.592 502.561Z" fill="url(#paint2_linear_346_10239)"></path><path d="M560.609 307.578L581.598 319.239L602.588 307.578V282.939L581.598 270.772L560.609 282.939V307.578Z" fill="url(#paint3_linear_346_10239)"></path><defs><linearGradient id="paint0_linear_346_10239" x1="528.088" y1="34.4652" x2="85.794" y2="167.144" gradientUnits="userSpaceOnUse"><stop stop-color="#C200FB"></stop><stop offset="0.489658" stop-color="#3772FF"></stop><stop offset="0.489758" stop-color="#3773FE"></stop><stop offset="1" stop-color="#5AC4BE"></stop></linearGradient><linearGradient id="paint1_linear_346_10239" x1="532.019" y1="20.6302" x2="87.4385" y2="140.299" gradientUnits="userSpaceOnUse"><stop stop-color="#C200FB"></stop><stop offset="0.489658" stop-color="#3772FF"></stop><stop offset="0.489758" stop-color="#3773FE"></stop><stop offset="1" stop-color="#5AC4BE"></stop></linearGradient><linearGradient id="paint2_linear_346_10239" x1="502.889" y1="97.2472" x2="97.0455" y2="315.215" gradientUnits="userSpaceOnUse"><stop stop-color="#C200FB"></stop><stop offset="0.489658" stop-color="#3772FF"></stop><stop offset="0.489758" stop-color="#3773FE"></stop><stop offset="1" stop-color="#5AC4BE"></stop></linearGradient><linearGradient id="paint3_linear_346_10239" x1="528.088" y1="34.4673" x2="85.7943" y2="167.148" gradientUnits="userSpaceOnUse"><stop stop-color="#C200FB"></stop><stop offset="0.489658" stop-color="#3772FF"></stop><stop offset="0.489758" stop-color="#3773FE"></stop><stop offset="1" stop-color="#5AC4BE"></stop></linearGradient></defs></svg> 